<svg xmlns="http://www.w3.org/2000/svg" width="960" height="280" viewBox="0 0 960 280" role="img" aria-labelledby="title description">
  <title id="title">John Mamanao</title>
  <desc id="description">Full-stack developer in Davao City, Philippines.</desc>
  <rect x="1" y="1" width="958" height="278" rx="22" fill="#0a0a0a" stroke="#303030" stroke-width="2"/>

  <g transform="translate(58 48)">
    <circle cx="92" cy="92" r="91" fill="#ffffff"/>
    <g transform="translate(28 28) scale(2)">
      <path d="M20 18 38 8l10 5.8-19 10.7-9-6.5Z" fill="#080807"/>
      <path d="m39 21.5 9-5v9l-9-4Z" fill="#080807"/>
      <path d="m39 25 9 5v13c0 5-2.5 8.7-7 11.1L29 58 15 49.8c-3.5-2.1-5-5-5-9.1l14 8 15-8.5V25Z" fill="#080807"/>
      <path d="m10 36 11-6 7 4v8l-4 2.3L10 36Z" fill="#080807"/>
    </g>
  </g>

  <text x="286" y="126" fill="#ffffff" font-family="Inter, ui-sans-serif, system-ui, -apple-system, BlinkMacSystemFont, 'Segoe UI', sans-serif" font-size="58" font-weight="700" letter-spacing="-1.8">John Mamanao</text>
  <text x="289" y="174" fill="#b8b8b8" font-family="Inter, ui-sans-serif, system-ui, -apple-system, BlinkMacSystemFont, 'Segoe UI', sans-serif" font-size="28" font-weight="400">Full-stack developer in Davao City, Philippines</text>
</svg>
